<?xml version="1.0" encoding="UTF-8" standalone="no"?>
<!DOCTYPE svg PUBLIC "-//W3C//DTD SVG 1.1//EN"
 "http://www.w3.org/Graphics/SVG/1.1/DTD/svg11.dtd">
<!-- Generated by graphviz version 2.44.1 (20200629.0846)
 -->
<!-- Title: g Pages: 1 -->
<svg width="1468pt" height="834pt"
 viewBox="0.00 0.00 1468.00 833.60" xmlns="http://www.w3.org/2000/svg" xmlns:xlink="http://www.w3.org/1999/xlink">
<g id="graph0" class="graph" transform="scale(1 1) rotate(0) translate(4 829.6)">
<title>g</title>
<polygon fill="white" stroke="transparent" points="-4,4 -4,-829.6 1464,-829.6 1464,4 -4,4"/>
<g id="clust1" class="cluster">
<title>cluster_108882150</title>
<polygon fill="#ececec" stroke="black" points="8,-8 8,-817.6 1452,-817.6 1452,-8 8,-8"/>
<text text-anchor="middle" x="29.22" y="-801" font-family="Times New Roman,serif" font-size="14.00">rutuj</text>
</g>
<g id="clust2" class="cluster">
<title>cluster_1685228816</title>
<polygon fill="#d8d8d8" stroke="black" points="16,-16 16,-784.8 1444,-784.8 1444,-16 16,-16"/>
<text text-anchor="middle" x="66.38" y="-768.2" font-family="Times New Roman,serif" font-size="14.00">photofiltersapp</text>
</g>
<!-- Builder1911043414 -->
<g id="node1" class="node">
<title>Builder1911043414</title>
<polygon fill="#ffffff" stroke="transparent" points="1436,-313.6 1262,-313.6 1262,-263.6 1436,-263.6 1436,-313.6"/>
<text text-anchor="start" x="1267" y="-296" font-family="Times New Roman,serif" font-size="14.00">(C)Builder</text>
<text text-anchor="start" x="1266.9" y="-272" font-family="Times New Roman,serif" font-size="14.00">+ build(): ServiceComponent</text>
<polygon fill="black" stroke="black" points="1262,-288.6 1262,-288.6 1436,-288.6 1436,-288.6 1262,-288.6"/>
<polygon fill="none" stroke="black" points="1262,-263.6 1262,-313.6 1436,-313.6 1436,-263.6 1262,-263.6"/>
</g>
<!-- ConcurrentConverter1577323120 -->
<g id="node2" class="node">
<title>ConcurrentConverter1577323120</title>
<polygon fill="#ffffff" stroke="transparent" points="264,-361.6 24,-361.6 24,-215.6 264,-215.6 264,-361.6"/>
<text text-anchor="start" x="29" y="-344" font-family="Times New Roman,serif" font-size="14.00">(C)ConcurrentConverter</text>
<text text-anchor="start" x="28.73" y="-320" font-family="Times New Roman,serif" font-size="14.00">&#45; &#160;&#160;convertedImageLocation: String [0..1]</text>
<text text-anchor="start" x="29" y="-296" font-family="Times New Roman,serif" font-size="14.00">&#45; &#160;&#160;converter: PhotoConverter [0..1]</text>
<text text-anchor="start" x="29" y="-272" font-family="Times New Roman,serif" font-size="14.00">&#45; &#160;&#160;fileName: String [0..1]</text>
<text text-anchor="start" x="29" y="-248" font-family="Times New Roman,serif" font-size="14.00">&#45; &#160;&#160;inputImage: Photo [0..1]</text>
<text text-anchor="start" x="29" y="-224" font-family="Times New Roman,serif" font-size="14.00">+ run()</text>
<polygon fill="black" stroke="black" points="24,-336.6 24,-336.6 264,-336.6 264,-336.6 24,-336.6"/>
<polygon fill="black" stroke="black" points="24,-240.6 24,-240.6 264,-240.6 264,-240.6 24,-240.6"/>
<polygon fill="none" stroke="black" points="24,-215.6 24,-361.6 264,-361.6 264,-215.6 24,-215.6"/>
</g>
<!-- GreyscaleConverter507044939 -->
<g id="node6" class="node">
<title>GreyscaleConverter507044939</title>
<polygon fill="#ffffff" stroke="transparent" points="328,-110 24,-110 24,-60 328,-60 328,-110"/>
<text text-anchor="start" x="29" y="-92.4" font-family="Times New Roman,serif" font-size="14.00">(C)GreyscaleConverter</text>
<text text-anchor="start" x="28.58" y="-68.4" font-family="Times New Roman,serif" font-size="14.00">+ convert(image: Photo, imageName: String): String</text>
<polygon fill="black" stroke="black" points="24,-85 24,-85 328,-85 328,-85 24,-85"/>
<polygon fill="none" stroke="black" points="24,-60 24,-110 328,-110 328,-60 24,-60"/>
</g>
<!-- ConcurrentConverter1577323120&#45;&gt;GreyscaleConverter507044939 -->
<g id="edge1" class="edge">
<title>ConcurrentConverter1577323120&#45;&gt;GreyscaleConverter507044939</title>
<path fill="none" stroke="black" d="M155.46,-215.39C161.31,-178.55 168.04,-136.17 172.15,-110.24"/>
</g>
<!-- InversionConverter507044939 -->
<g id="node7" class="node">
<title>InversionConverter507044939</title>
<polygon fill="#ffffff" stroke="transparent" points="650,-110 346,-110 346,-60 650,-60 650,-110"/>
<text text-anchor="start" x="351" y="-92.4" font-family="Times New Roman,serif" font-size="14.00">(C)InversionConverter</text>
<text text-anchor="start" x="350.58" y="-68.4" font-family="Times New Roman,serif" font-size="14.00">+ convert(image: Photo, imageName: String): String</text>
<polygon fill="black" stroke="black" points="346,-85 346,-85 650,-85 650,-85 346,-85"/>
<polygon fill="none" stroke="black" points="346,-60 346,-110 650,-110 650,-60 346,-60"/>
</g>
<!-- ConcurrentConverter1577323120&#45;&gt;InversionConverter507044939 -->
<g id="edge2" class="edge">
<title>ConcurrentConverter1577323120&#45;&gt;InversionConverter507044939</title>
<path fill="none" stroke="black" d="M264.34,-219.07C330.49,-181.4 408.43,-137.01 455.49,-110.21"/>
</g>
<!-- Photo1372463170 -->
<g id="node8" class="node">
<title>Photo1372463170</title>
<polygon fill="#ffffff" stroke="transparent" points="834,-146 668,-146 668,-24 834,-24 834,-146"/>
<text text-anchor="start" x="673" y="-128.4" font-family="Times New Roman,serif" font-size="14.00">(C)Photo</text>
<text text-anchor="start" x="673" y="-104.4" font-family="Times New Roman,serif" font-size="14.00">&#45; &#160;&#160;height: int [1]</text>
<text text-anchor="start" x="672.92" y="-80.4" font-family="Times New Roman,serif" font-size="14.00">&#45; &#160;&#160;pixels: List&lt;Pixel&gt; [0..1]</text>
<text text-anchor="start" x="673" y="-56.4" font-family="Times New Roman,serif" font-size="14.00">&#45; &#160;&#160;type: int [1]</text>
<text text-anchor="start" x="673" y="-32.4" font-family="Times New Roman,serif" font-size="14.00">&#45; &#160;&#160;width: int [1]</text>
<polygon fill="black" stroke="black" points="668,-121 668,-121 834,-121 834,-121 668,-121"/>
<polygon fill="none" stroke="black" points="668,-24 668,-146 834,-146 834,-24 668,-24"/>
</g>
<!-- ConcurrentConverter1577323120&#45;&gt;Photo1372463170 -->
<g id="edge3" class="edge">
<title>ConcurrentConverter1577323120&#45;&gt;Photo1372463170</title>
<path fill="none" stroke="black" d="M264.23,-221.01C270.33,-217.63 274,-215.6 274,-215.6 274,-215.6 659,-146 659,-146 659,-146 659.05,-145.97 659.16,-145.9"/>
<polygon fill="black" stroke="black" points="661.36,-148.64 667.82,-140.25 657.53,-142.78 661.36,-148.64"/>
<text text-anchor="middle" x="586.88" y="-185" font-family="Times New Roman,serif" font-size="14.00">inputImage</text>
<text text-anchor="middle" x="586.88" y="-168.2" font-family="Times New Roman,serif" font-size="14.00">[0..1]</text>
</g>
<!-- SepiaConverter507044939 -->
<g id="node11" class="node">
<title>SepiaConverter507044939</title>
<polygon fill="#ffffff" stroke="transparent" points="1156,-110 852,-110 852,-60 1156,-60 1156,-110"/>
<text text-anchor="start" x="857" y="-92.4" font-family="Times New Roman,serif" font-size="14.00">(C)SepiaConverter</text>
<text text-anchor="start" x="856.58" y="-68.4" font-family="Times New Roman,serif" font-size="14.00">+ convert(image: Photo, imageName: String): String</text>
<polygon fill="black" stroke="black" points="852,-85 852,-85 1156,-85 1156,-85 852,-85"/>
<polygon fill="none" stroke="black" points="852,-60 852,-110 1156,-110 1156,-60 852,-60"/>
</g>
<!-- ConcurrentConverter1577323120&#45;&gt;SepiaConverter507044939 -->
<g id="edge4" class="edge">
<title>ConcurrentConverter1577323120&#45;&gt;SepiaConverter507044939</title>
<path fill="none" stroke="black" d="M264.23,-221.01C270.33,-217.63 274,-215.6 274,-215.6 274,-215.6 623,-197.6 623,-197.6 623,-197.6 843,-146 843,-146 843,-146 894.65,-126.75 939.44,-110.06"/>
</g>
<!-- ConvertPhotoActivity1526362 -->
<g id="node3" class="node">
<title>ConvertPhotoActivity1526362</title>
<polygon fill="#ffffff" stroke="transparent" points="891,-625.2 373,-625.2 373,-431.2 891,-431.2 891,-625.2"/>
<text text-anchor="start" x="378" y="-607.6" font-family="Times New Roman,serif" font-size="14.00">(C)ConvertPhotoActivity</text>
<text text-anchor="start" x="378" y="-583.6" font-family="Times New Roman,serif" font-size="14.00">&#45; &#160;&#160;conversionResults: Map&lt;ConcurrentConverter, Future&lt;Void&gt;&gt; [0..1]</text>
<text text-anchor="start" x="378" y="-559.6" font-family="Times New Roman,serif" font-size="14.00">&#45; &#160;&#160;converterMapper: ConverterStrategyMapper [0..1]</text>
<text text-anchor="start" x="378" y="-535.6" font-family="Times New Roman,serif" font-size="14.00">&#45; &#160;&#160;executorService: ExecutorService [0..1]</text>
<text text-anchor="start" x="378" y="-511.6" font-family="Times New Roman,serif" font-size="14.00">&#45; gatherResults(): List&lt;String&gt;</text>
<text text-anchor="start" x="377.81" y="-487.6" font-family="Times New Roman,serif" font-size="14.00">+ handleRequest(filePath: String, conversionTypes: List&lt;ConversionType&gt;): List&lt;String&gt;</text>
<text text-anchor="start" x="378" y="-463.6" font-family="Times New Roman,serif" font-size="14.00">&#45; shutDownExecutorService()</text>
<text text-anchor="start" x="378" y="-439.6" font-family="Times New Roman,serif" font-size="14.00">&#45; submitConcurrentConverter(concurrentConverter: ConcurrentConverter)</text>
<polygon fill="black" stroke="black" points="373,-600.2 373,-600.2 891,-600.2 891,-600.2 373,-600.2"/>
<polygon fill="black" stroke="black" points="373,-528.2 373,-528.2 891,-528.2 891,-528.2 373,-528.2"/>
<polygon fill="none" stroke="black" points="373,-431.2 373,-625.2 891,-625.2 891,-431.2 373,-431.2"/>
</g>
<!-- ConvertPhotoActivity1526362&#45;&gt;ConcurrentConverter1577323120 -->
<g id="edge5" class="edge">
<title>ConvertPhotoActivity1526362&#45;&gt;ConcurrentConverter1577323120</title>
<path fill="none" stroke="black" d="M424.27,-431.11C345.3,-394.58 274,-361.6 274,-361.6 274,-361.6 273.77,-361.47 273.33,-361.23"/>
<polygon fill="black" stroke="black" points="274.67,-357.97 264.23,-356.19 271.28,-364.1 274.67,-357.97"/>
<text text-anchor="middle" x="430.32" y="-400.6" font-family="Times New Roman,serif" font-size="14.00">conversionResults</text>
<text text-anchor="middle" x="430.32" y="-383.8" font-family="Times New Roman,serif" font-size="14.00">[0..1]</text>
</g>
<!-- ConverterStrategyMapper507044939 -->
<g id="node4" class="node">
<title>ConverterStrategyMapper507044939</title>
<polygon fill="#ffffff" stroke="transparent" points="707.5,-325.6 282.5,-325.6 282.5,-251.6 707.5,-251.6 707.5,-325.6"/>
<text text-anchor="start" x="288" y="-308" font-family="Times New Roman,serif" font-size="14.00">(C)ConverterStrategyMapper</text>
<text text-anchor="start" x="288" y="-284" font-family="Times New Roman,serif" font-size="14.00">&#45; &#160;&#160;converterMap: Map&lt;ConversionType, PhotoConverter&gt; [0..1]</text>
<text text-anchor="start" x="287.64" y="-260" font-family="Times New Roman,serif" font-size="14.00">+ getImageConverter(conversionType: ConversionType): PhotoConverter</text>
<polygon fill="black" stroke="black" points="283,-300.6 283,-300.6 708,-300.6 708,-300.6 283,-300.6"/>
<polygon fill="black" stroke="black" points="283,-276.6 283,-276.6 708,-276.6 708,-276.6 283,-276.6"/>
<polygon fill="none" stroke="black" points="282.5,-251.6 282.5,-325.6 707.5,-325.6 707.5,-251.6 282.5,-251.6"/>
</g>
<!-- ConvertPhotoActivity1526362&#45;&gt;ConverterStrategyMapper507044939 -->
<g id="edge6" class="edge">
<title>ConvertPhotoActivity1526362&#45;&gt;ConverterStrategyMapper507044939</title>
<path fill="none" stroke="black" d="M576.47,-430.9C557.28,-397.62 536.68,-361.89 520.99,-334.68"/>
<polygon fill="black" stroke="black" points="523.9,-332.71 515.87,-325.8 517.84,-336.21 523.9,-332.71"/>
<text text-anchor="middle" x="611.19" y="-400.6" font-family="Times New Roman,serif" font-size="14.00">converterMapper</text>
<text text-anchor="middle" x="611.19" y="-383.8" font-family="Times New Roman,serif" font-size="14.00">[0..1]</text>
</g>
<!-- PhotoUtil1152408371 -->
<g id="node10" class="node">
<title>PhotoUtil1152408371</title>
<polygon fill="#ffffff" stroke="transparent" points="1244,-349.6 726,-349.6 726,-227.6 1244,-227.6 1244,-349.6"/>
<text text-anchor="start" x="731" y="-332" font-family="Times New Roman,serif" font-size="14.00">(C)PhotoUtil</text>
<text text-anchor="start" x="731" y="-308" font-family="Times New Roman,serif" font-size="14.00">&#45; createRGB(bufferedImageRGBValue: int): RGB</text>
<text text-anchor="start" x="731" y="-284" font-family="Times New Roman,serif" font-size="14.00">+ fromFile(filePath: String): Photo</text>
<text text-anchor="start" x="731" y="-260" font-family="Times New Roman,serif" font-size="14.00">&#45; getRGBIntValue(rgb: RGB): int</text>
<text text-anchor="start" x="730.85" y="-236" font-family="Times New Roman,serif" font-size="14.00">+ savePhoto(image: Photo, imageName: String, conversionType: ConversionType): String</text>
<polygon fill="black" stroke="black" points="726,-324.6 726,-324.6 1244,-324.6 1244,-324.6 726,-324.6"/>
<polygon fill="none" stroke="black" points="726,-227.6 726,-349.6 1244,-349.6 1244,-227.6 726,-227.6"/>
</g>
<!-- ConvertPhotoActivity1526362&#45;&gt;PhotoUtil1152408371 -->
<g id="edge7" class="edge">
<title>ConvertPhotoActivity1526362&#45;&gt;PhotoUtil1152408371</title>
<path fill="none" stroke="black" d="M774.82,-431.07C812.45,-405.74 852.21,-378.98 886.9,-355.63"/>
<polygon fill="black" stroke="black" points="889.27,-358.25 895.61,-349.77 885.36,-352.45 889.27,-358.25"/>
<text text-anchor="middle" x="934.8" y="-392.2" font-family="Times New Roman,serif" font-size="14.00">handleRequest() &#45;&gt; fromFile()</text>
</g>
<!-- DaggerServiceComponent608074794 -->
<g id="node5" class="node">
<title>DaggerServiceComponent608074794</title>
<polygon fill="#ffffff" stroke="transparent" points="1358,-589.2 1030,-589.2 1030,-467.2 1358,-467.2 1358,-589.2"/>
<text text-anchor="start" x="1035" y="-571.6" font-family="Times New Roman,serif" font-size="14.00">(C)DaggerServiceComponent</text>
<text text-anchor="start" x="1035" y="-547.6" font-family="Times New Roman,serif" font-size="14.00">&#45; &#160;&#160;serviceComponent: DaggerServiceComponent [0..1]</text>
<text text-anchor="start" x="1035" y="-523.6" font-family="Times New Roman,serif" font-size="14.00">+ builder(): Builder</text>
<text text-anchor="start" x="1035" y="-499.6" font-family="Times New Roman,serif" font-size="14.00">+ create(): ServiceComponent</text>
<text text-anchor="start" x="1034.9" y="-475.6" font-family="Times New Roman,serif" font-size="14.00">+ provideConvertPhotoActivity(): ConvertPhotoActivity</text>
<polygon fill="black" stroke="black" points="1030,-564.2 1030,-564.2 1358,-564.2 1358,-564.2 1030,-564.2"/>
<polygon fill="black" stroke="black" points="1030,-540.2 1030,-540.2 1358,-540.2 1358,-540.2 1030,-540.2"/>
<polygon fill="none" stroke="black" points="1030,-467.2 1030,-589.2 1358,-589.2 1358,-467.2 1030,-467.2"/>
</g>
<!-- DaggerServiceComponent608074794&#45;&gt;Builder1911043414 -->
<g id="edge8" class="edge">
<title>DaggerServiceComponent608074794&#45;&gt;Builder1911043414</title>
<path fill="none" stroke="black" d="M1233.31,-466.94C1263.29,-420.99 1303.42,-359.47 1327.68,-322.28"/>
<polygon fill="black" stroke="black" points="1330.66,-324.11 1333.2,-313.82 1324.8,-320.29 1330.66,-324.11"/>
<text text-anchor="middle" x="1339.19" y="-392.2" font-family="Times New Roman,serif" font-size="14.00">create() &#45;&gt; build()</text>
</g>
<!-- PhotoConverterManualTester1039272381 -->
<g id="node9" class="node">
<title>PhotoConverterManualTester1039272381</title>
<polygon fill="#ffffff" stroke="transparent" points="1127,-752 699,-752 699,-678 1127,-678 1127,-752"/>
<text text-anchor="start" x="704" y="-734.4" font-family="Times New Roman,serif" font-size="14.00">(C)PhotoConverterManualTester</text>
<text text-anchor="start" x="704" y="-710.4" font-family="Times New Roman,serif" font-size="14.00">+ main(args: String[])</text>
<text text-anchor="start" x="703.9" y="-686.4" font-family="Times New Roman,serif" font-size="14.00">&#45; runTest(filePath: String, conversions: ImmutableList&lt;ConversionType&gt;)</text>
<polygon fill="black" stroke="black" points="699,-727 699,-727 1127,-727 1127,-727 699,-727"/>
<polygon fill="none" stroke="black" points="699,-678 699,-752 1127,-752 1127,-678 699,-678"/>
</g>
<!-- PhotoConverterManualTester1039272381&#45;&gt;ConvertPhotoActivity1526362 -->
<g id="edge9" class="edge">
<title>PhotoConverterManualTester1039272381&#45;&gt;ConvertPhotoActivity1526362</title>
<path fill="none" stroke="black" d="M858.15,-677.93C837.18,-664.14 812.1,-647.64 786.39,-630.73"/>
<polygon fill="black" stroke="black" points="788.3,-627.8 778.02,-625.23 784.45,-633.65 788.3,-627.8"/>
<text text-anchor="middle" x="910.69" y="-647.4" font-family="Times New Roman,serif" font-size="14.00">runTest() &#45;&gt; handleRequest()</text>
</g>
<!-- PhotoConverterManualTester1039272381&#45;&gt;DaggerServiceComponent608074794 -->
<g id="edge10" class="edge">
<title>PhotoConverterManualTester1039272381&#45;&gt;DaggerServiceComponent608074794</title>
<path fill="none" stroke="black" d="M968.36,-677.98C983.59,-668.08 996,-660 996,-660 996,-660 1051.06,-623.63 1103.11,-589.24"/>
</g>
</g>
</svg>
