<?xml version="1.0" encoding="UTF-8" standalone="no"?>
<!DOCTYPE svg PUBLIC "-//W3C//DTD SVG 1.1//EN"
 "http://www.w3.org/Graphics/SVG/1.1/DTD/svg11.dtd">
<!-- Generated by graphviz version 2.44.1 (20200629.0846)
 -->
<!-- Title: g Pages: 1 -->
<svg width="902pt" height="407pt"
 viewBox="0.00 0.00 901.58 407.00" xmlns="http://www.w3.org/2000/svg" xmlns:xlink="http://www.w3.org/1999/xlink">
<g id="graph0" class="graph" transform="scale(1 1) rotate(0) translate(4 403)">
<title>g</title>
<polygon fill="white" stroke="transparent" points="-4,4 -4,-403 897.58,-403 897.58,4 -4,4"/>
<g id="clust1" class="cluster">
<title>cluster_108882150</title>
<polygon fill="#ececec" stroke="black" points="7,-8 7,-391 885.58,-391 885.58,-8 7,-8"/>
<text text-anchor="middle" x="28.22" y="-374.4" font-family="Times New Roman,serif" font-size="14.00">rutuj</text>
</g>
<g id="clust2" class="cluster">
<title>cluster_1685228816</title>
<polygon fill="#d8d8d8" stroke="black" points="15,-16 15,-358 877.58,-358 877.58,-16 15,-16"/>
<text text-anchor="middle" x="65.38" y="-341.4" font-family="Times New Roman,serif" font-size="14.00">photofiltersapp</text>
</g>
<g id="clust3" class="cluster">
<title>cluster_1255668801</title>
<polygon fill="white" stroke="black" points="411.64,-24 411.64,-155 559.8,-155 559.8,-24 411.64,-24"/>
<text text-anchor="middle" x="441.42" y="-138.4" font-family="Times New Roman,serif" font-size="14.00">FileUtil</text>
</g>
<g id="clust8" class="cluster">
<title>cluster_227131738</title>
<polygon fill="white" stroke="black" points="23,-120 23,-197 131.27,-197 131.27,-120 23,-120"/>
<text text-anchor="middle" x="77.28" y="-180.4" font-family="Times New Roman,serif" font-size="14.00">PhotoFiltersApp</text>
</g>
<g id="clust7" class="cluster">
<title>cluster_206533971</title>
<polygon fill="white" stroke="black" points="694.59,-205 694.59,-282 828.83,-282 828.83,-205 694.59,-205"/>
<text text-anchor="middle" x="729.82" y="-265.4" font-family="Times New Roman,serif" font-size="14.00">PhotoUtil</text>
</g>
<g id="clust9" class="cluster">
<title>cluster_408000173</title>
<polygon fill="white" stroke="black" points="167.27,-120 167.27,-197 317.6,-197 317.6,-120 167.27,-120"/>
<text text-anchor="middle" x="205.6" y="-180.4" font-family="Times New Roman,serif" font-size="14.00">MainPanel</text>
</g>
<g id="clust4" class="cluster">
<title>cluster_1693232222</title>
<polygon fill="white" stroke="black" points="395.54,-163 395.54,-240 575.9,-240 575.9,-163 395.54,-163"/>
<text text-anchor="middle" x="465.37" y="-223.4" font-family="Times New Roman,serif" font-size="14.00">ConvertPhotoActivity</text>
</g>
<g id="clust6" class="cluster">
<title>cluster_1911043414</title>
<polygon fill="white" stroke="black" points="337.6,-248 337.6,-325 633.84,-325 633.84,-248 337.6,-248"/>
<text text-anchor="middle" x="419.85" y="-308.4" font-family="Times New Roman,serif" font-size="14.00">DaggerServiceComponent</text>
</g>
<g id="clust5" class="cluster">
<title>cluster_1756674555</title>
<polygon fill="white" stroke="black" points="653.84,-120 653.84,-197 869.58,-197 869.58,-120 653.84,-120"/>
<text text-anchor="middle" x="734.93" y="-180.4" font-family="Times New Roman,serif" font-size="14.00">ConverterStrategyMapper</text>
</g>
<!-- FileUtil1152408371XXXcopyFile1695262292 -->
<g id="node1" class="node">
<title>FileUtil1152408371XXXcopyFile1695262292</title>
<g id="a_node1"><a xlink:title="FileUtil&#10;&#10;null">
<ellipse fill="white" stroke="black" cx="485.72" cy="-104" rx="59.24" ry="18"/>
<text text-anchor="middle" x="485.72" y="-99.8" font-family="Times New Roman,serif" font-size="14.00" fill="darkgreen">+ copyFile()</text>
</a>
</g>
</g>
<!-- FileUtil1152408371XXXloadImage2189724 -->
<g id="node2" class="node">
<title>FileUtil1152408371XXXloadImage2189724</title>
<g id="a_node2"><a xlink:title="FileUtil&#10;&#10;null">
<ellipse fill="white" stroke="black" cx="485.72" cy="-50" rx="66.16" ry="18"/>
<text text-anchor="middle" x="485.72" y="-45.8" font-family="Times New Roman,serif" font-size="14.00" fill="darkgreen">+ loadImage()</text>
</a>
</g>
</g>
<!-- ConvertPhotoActivity1526362XXXhandleRequest1398741355 -->
<g id="node3" class="node">
<title>ConvertPhotoActivity1526362XXXhandleRequest1398741355</title>
<g id="a_node3"><a xlink:title="ConvertPhotoActivity&#10;&#10;&#10; &#160;Applies the requested conversions on the file located at the provided filePath. A new image will be generated&#10; &#160;for each conversion.&#10; &#10; &#160;If more than one conversion is requested, multiple threads will be used to execute each conversion.&#10; &#160;@param filePath the location of the file to convert&#10; &#160;@param conversionTypes a list of conversions to apply to the image&#10; &#160;@return a list of file paths containing the converted images&#10; ">
<ellipse fill="white" stroke="black" cx="485.72" cy="-189" rx="82.36" ry="18"/>
<text text-anchor="middle" x="485.72" y="-184.8" font-family="Times New Roman,serif" font-size="14.00" fill="darkgreen">+ handleRequest()</text>
</a>
</g>
</g>
<!-- ConverterStrategyMapper507044939XXXgetImageConverter12346992 -->
<g id="node4" class="node">
<title>ConverterStrategyMapper507044939XXXgetImageConverter12346992</title>
<g id="a_node4"><a xlink:title="ConverterStrategyMapper&#10;&#10;&#10; &#160;Retrieves the strategy associated with the provided ConversionType.&#10; &#160;@param conversionType the type of strategy requested&#10; &#160;@return the associated strategy&#10; ">
<ellipse fill="white" stroke="black" cx="761.71" cy="-146" rx="99.73" ry="18"/>
<text text-anchor="middle" x="761.71" y="-141.8" font-family="Times New Roman,serif" font-size="14.00" fill="darkgreen">+ getImageConverter()</text>
</a>
</g>
</g>
<!-- ConvertPhotoActivity1526362XXXhandleRequest1398741355&#45;&gt;ConverterStrategyMapper507044939XXXgetImageConverter12346992 -->
<g id="edge1" class="edge">
<title>ConvertPhotoActivity1526362XXXhandleRequest1398741355&#45;&gt;ConverterStrategyMapper507044939XXXgetImageConverter12346992</title>
<path fill="none" stroke="black" d="M553.05,-178.59C589.99,-172.79 636.36,-165.52 675.92,-159.31"/>
<polygon fill="black" stroke="black" points="676.48,-162.76 685.81,-157.75 675.39,-155.85 676.48,-162.76"/>
</g>
<!-- PhotoUtil1152408371XXXfromFile1808118735 -->
<g id="node6" class="node">
<title>PhotoUtil1152408371XXXfromFile1808118735</title>
<g id="a_node6"><a xlink:title="PhotoUtil&#10;&#10;&#10; &#160;Reads an image file into memory and returns it in a Photo representation.&#10; &#160;@param filePath the location of the file to be opened&#10; &#160;@return a Photo representation of an image file&#10; &#160;@throws PhotoConversionClientException if the provided file cannot be opened&#10; ">
<ellipse fill="white" stroke="black" cx="761.71" cy="-231" rx="59.24" ry="18"/>
<text text-anchor="middle" x="761.71" y="-226.8" font-family="Times New Roman,serif" font-size="14.00" fill="darkgreen">+ fromFile()</text>
</a>
</g>
</g>
<!-- ConvertPhotoActivity1526362XXXhandleRequest1398741355&#45;&gt;PhotoUtil1152408371XXXfromFile1808118735 -->
<g id="edge2" class="edge">
<title>ConvertPhotoActivity1526362XXXhandleRequest1398741355&#45;&gt;PhotoUtil1152408371XXXfromFile1808118735</title>
<path fill="none" stroke="black" d="M553.4,-199.22C597.54,-205.99 655.04,-214.8 698.28,-221.43"/>
<polygon fill="black" stroke="black" points="697.98,-224.92 708.4,-222.98 699.04,-218.01 697.98,-224.92"/>
</g>
<!-- DaggerServiceComponent608074794XXXprovideConvertPhotoActivity0 -->
<g id="node5" class="node">
<title>DaggerServiceComponent608074794XXXprovideConvertPhotoActivity0</title>
<g id="a_node5"><a xlink:title="DaggerServiceComponent&#10;&#10;null">
<ellipse fill="white" stroke="black" cx="485.72" cy="-274" rx="140.25" ry="18"/>
<text text-anchor="middle" x="485.72" y="-269.8" font-family="Times New Roman,serif" font-size="14.00" fill="darkgreen">+ provideConvertPhotoActivity()</text>
</a>
</g>
</g>
<!-- PhotoFiltersApp1152389264XXXmain1859653459 -->
<g id="node7" class="node">
<title>PhotoFiltersApp1152389264XXXmain1859653459</title>
<g id="a_node7"><a xlink:title="PhotoFiltersApp&#10;&#10;null">
<ellipse fill="white" stroke="black" cx="76.64" cy="-146" rx="44.77" ry="18"/>
<text text-anchor="middle" x="76.64" y="-141.8" font-family="Times New Roman,serif" font-size="14.00" fill="darkgreen">+ main()</text>
</a>
</g>
</g>
<!-- MainPanel1152389264XXXMainPanel0 -->
<g id="node8" class="node">
<title>MainPanel1152389264XXXMainPanel0</title>
<g id="a_node8"><a xlink:title="MainPanel&#10;&#10;null">
<ellipse fill="white" stroke="black" stroke-width="4" cx="242.44" cy="-146" rx="67.33" ry="18"/>
<text text-anchor="middle" x="242.44" y="-141.8" font-family="Times New Roman,serif" font-size="14.00" fill="darkgreen">+ MainPanel()</text>
</a>
</g>
</g>
<!-- PhotoFiltersApp1152389264XXXmain1859653459&#45;&gt;MainPanel1152389264XXXMainPanel0 -->
<g id="edge7" class="edge">
<title>PhotoFiltersApp1152389264XXXmain1859653459&#45;&gt;MainPanel1152389264XXXMainPanel0</title>
<path fill="none" stroke="black" d="M121.53,-146C134.93,-146 150.07,-146 164.97,-146"/>
<polygon fill="black" stroke="black" points="165.22,-149.5 175.22,-146 165.22,-142.5 165.22,-149.5"/>
</g>
<!-- MainPanel1152389264XXXMainPanel0&#45;&gt;FileUtil1152408371XXXcopyFile1695262292 -->
<g id="edge5" class="edge">
<title>MainPanel1152389264XXXMainPanel0&#45;&gt;FileUtil1152408371XXXcopyFile1695262292</title>
<path fill="none" stroke="black" d="M299.1,-136.31C336.4,-129.82 385.52,-121.27 423.86,-114.59"/>
<polygon fill="black" stroke="black" points="424.62,-118.02 433.87,-112.85 423.41,-111.12 424.62,-118.02"/>
</g>
<!-- MainPanel1152389264XXXMainPanel0&#45;&gt;FileUtil1152408371XXXloadImage2189724 -->
<g id="edge6" class="edge">
<title>MainPanel1152389264XXXMainPanel0&#45;&gt;FileUtil1152408371XXXloadImage2189724</title>
<path fill="none" stroke="black" d="M266.71,-128.94C294.6,-108.51 337.6,-77 337.6,-77 337.6,-77 380.81,-69.07 420.4,-61.8"/>
<polygon fill="black" stroke="black" points="421.15,-65.22 430.36,-59.98 419.89,-58.34 421.15,-65.22"/>
</g>
<!-- MainPanel1152389264XXXMainPanel0&#45;&gt;ConvertPhotoActivity1526362XXXhandleRequest1398741355 -->
<g id="edge3" class="edge">
<title>MainPanel1152389264XXXMainPanel0&#45;&gt;ConvertPhotoActivity1526362XXXhandleRequest1398741355</title>
<path fill="none" stroke="black" d="M298.79,-155.87C332.24,-161.83 375.27,-169.49 411.51,-175.95"/>
<polygon fill="black" stroke="black" points="411.07,-179.43 421.53,-177.74 412.3,-172.54 411.07,-179.43"/>
</g>
<!-- MainPanel1152389264XXXMainPanel0&#45;&gt;DaggerServiceComponent608074794XXXprovideConvertPhotoActivity0 -->
<g id="edge4" class="edge">
<title>MainPanel1152389264XXXMainPanel0&#45;&gt;DaggerServiceComponent608074794XXXprovideConvertPhotoActivity0</title>
<path fill="none" stroke="black" d="M260.27,-163.52C287.36,-191.71 337.6,-244 337.6,-244 337.6,-244 367.59,-250.12 400.5,-256.83"/>
<polygon fill="black" stroke="black" points="399.8,-260.26 410.3,-258.82 401.2,-253.4 399.8,-260.26"/>
</g>
</g>
</svg>
