<?xml version="1.0" encoding="UTF-8" standalone="no"?>
<!DOCTYPE svg PUBLIC "-//W3C//DTD SVG 1.1//EN"
 "http://www.w3.org/Graphics/SVG/1.1/DTD/svg11.dtd">
<!-- Generated by graphviz version 2.44.1 (20200629.0846)
 -->
<!-- Title: g Pages: 1 -->
<svg width="1468pt" height="1162pt"
 viewBox="0.00 0.00 1468.00 1162.40" xmlns="http://www.w3.org/2000/svg" xmlns:xlink="http://www.w3.org/1999/xlink">
<g id="graph0" class="graph" transform="scale(1 1) rotate(0) translate(4 1158.4)">
<title>g</title>
<polygon fill="white" stroke="transparent" points="-4,4 -4,-1158.4 1464,-1158.4 1464,4 -4,4"/>
<g id="clust1" class="cluster">
<title>cluster_108882150</title>
<polygon fill="#ececec" stroke="black" points="8,-8 8,-1146.4 1452,-1146.4 1452,-8 8,-8"/>
<text text-anchor="middle" x="29.22" y="-1129.8" font-family="Times New Roman,serif" font-size="14.00">rutuj</text>
</g>
<g id="clust2" class="cluster">
<title>cluster_1685228816</title>
<polygon fill="#d8d8d8" stroke="black" points="16,-16 16,-1113.6 1444,-1113.6 1444,-16 16,-16"/>
<text text-anchor="middle" x="66.38" y="-1097" font-family="Times New Roman,serif" font-size="14.00">photofiltersapp</text>
</g>
<!-- Builder1911043414 -->
<g id="node1" class="node">
<title>Builder1911043414</title>
<polygon fill="#ffffff" stroke="transparent" points="1436,-313.6 1262,-313.6 1262,-263.6 1436,-263.6 1436,-313.6"/>
<text text-anchor="start" x="1267" y="-296" font-family="Times New Roman,serif" font-size="14.00">(C)Builder</text>
<text text-anchor="start" x="1266.9" y="-272" font-family="Times New Roman,serif" font-size="14.00">+ build(): ServiceComponent</text>
<polygon fill="black" stroke="black" points="1262,-288.6 1262,-288.6 1436,-288.6 1436,-288.6 1262,-288.6"/>
<polygon fill="none" stroke="black" points="1262,-263.6 1262,-313.6 1436,-313.6 1436,-263.6 1262,-263.6"/>
</g>
<!-- ConcurrentConverter1577323120 -->
<g id="node2" class="node">
<title>ConcurrentConverter1577323120</title>
<polygon fill="#ffffff" stroke="transparent" points="264,-361.6 24,-361.6 24,-215.6 264,-215.6 264,-361.6"/>
<text text-anchor="start" x="29" y="-344" font-family="Times New Roman,serif" font-size="14.00">(C)ConcurrentConverter</text>
<text text-anchor="start" x="28.73" y="-320" font-family="Times New Roman,serif" font-size="14.00">&#45; &#160;&#160;convertedImageLocation: String [0..1]</text>
<text text-anchor="start" x="29" y="-296" font-family="Times New Roman,serif" font-size="14.00">&#45; &#160;&#160;converter: PhotoConverter [0..1]</text>
<text text-anchor="start" x="29" y="-272" font-family="Times New Roman,serif" font-size="14.00">&#45; &#160;&#160;fileName: String [0..1]</text>
<text text-anchor="start" x="29" y="-248" font-family="Times New Roman,serif" font-size="14.00">&#45; &#160;&#160;inputImage: Photo [0..1]</text>
<text text-anchor="start" x="29" y="-224" font-family="Times New Roman,serif" font-size="14.00">+ run()</text>
<polygon fill="black" stroke="black" points="24,-336.6 24,-336.6 264,-336.6 264,-336.6 24,-336.6"/>
<polygon fill="black" stroke="black" points="24,-240.6 24,-240.6 264,-240.6 264,-240.6 24,-240.6"/>
<polygon fill="none" stroke="black" points="24,-215.6 24,-361.6 264,-361.6 264,-215.6 24,-215.6"/>
</g>
<!-- GreyscaleConverter507044939 -->
<g id="node8" class="node">
<title>GreyscaleConverter507044939</title>
<polygon fill="#ffffff" stroke="transparent" points="328,-110 24,-110 24,-60 328,-60 328,-110"/>
<text text-anchor="start" x="29" y="-92.4" font-family="Times New Roman,serif" font-size="14.00">(C)GreyscaleConverter</text>
<text text-anchor="start" x="28.58" y="-68.4" font-family="Times New Roman,serif" font-size="14.00">+ convert(image: Photo, imageName: String): String</text>
<polygon fill="black" stroke="black" points="24,-85 24,-85 328,-85 328,-85 24,-85"/>
<polygon fill="none" stroke="black" points="24,-60 24,-110 328,-110 328,-60 24,-60"/>
</g>
<!-- ConcurrentConverter1577323120&#45;&gt;GreyscaleConverter507044939 -->
<g id="edge1" class="edge">
<title>ConcurrentConverter1577323120&#45;&gt;GreyscaleConverter507044939</title>
<path fill="none" stroke="black" d="M155.46,-215.39C161.31,-178.55 168.04,-136.17 172.15,-110.24"/>
</g>
<!-- InversionConverter507044939 -->
<g id="node9" class="node">
<title>InversionConverter507044939</title>
<polygon fill="#ffffff" stroke="transparent" points="650,-110 346,-110 346,-60 650,-60 650,-110"/>
<text text-anchor="start" x="351" y="-92.4" font-family="Times New Roman,serif" font-size="14.00">(C)InversionConverter</text>
<text text-anchor="start" x="350.58" y="-68.4" font-family="Times New Roman,serif" font-size="14.00">+ convert(image: Photo, imageName: String): String</text>
<polygon fill="black" stroke="black" points="346,-85 346,-85 650,-85 650,-85 346,-85"/>
<polygon fill="none" stroke="black" points="346,-60 346,-110 650,-110 650,-60 346,-60"/>
</g>
<!-- ConcurrentConverter1577323120&#45;&gt;InversionConverter507044939 -->
<g id="edge2" class="edge">
<title>ConcurrentConverter1577323120&#45;&gt;InversionConverter507044939</title>
<path fill="none" stroke="black" d="M264.34,-219.07C330.49,-181.4 408.43,-137.01 455.49,-110.21"/>
</g>
<!-- Photo1372463170 -->
<g id="node11" class="node">
<title>Photo1372463170</title>
<polygon fill="#ffffff" stroke="transparent" points="834,-146 668,-146 668,-24 834,-24 834,-146"/>
<text text-anchor="start" x="673" y="-128.4" font-family="Times New Roman,serif" font-size="14.00">(C)Photo</text>
<text text-anchor="start" x="673" y="-104.4" font-family="Times New Roman,serif" font-size="14.00">&#45; &#160;&#160;height: int [1]</text>
<text text-anchor="start" x="672.92" y="-80.4" font-family="Times New Roman,serif" font-size="14.00">&#45; &#160;&#160;pixels: List&lt;Pixel&gt; [0..*]</text>
<text text-anchor="start" x="673" y="-56.4" font-family="Times New Roman,serif" font-size="14.00">&#45; &#160;&#160;type: int [1]</text>
<text text-anchor="start" x="673" y="-32.4" font-family="Times New Roman,serif" font-size="14.00">&#45; &#160;&#160;width: int [1]</text>
<polygon fill="black" stroke="black" points="668,-121 668,-121 834,-121 834,-121 668,-121"/>
<polygon fill="none" stroke="black" points="668,-24 668,-146 834,-146 834,-24 668,-24"/>
</g>
<!-- ConcurrentConverter1577323120&#45;&gt;Photo1372463170 -->
<g id="edge3" class="edge">
<title>ConcurrentConverter1577323120&#45;&gt;Photo1372463170</title>
<path fill="none" stroke="black" d="M264.23,-221.01C270.33,-217.63 274,-215.6 274,-215.6 274,-215.6 659,-146 659,-146 659,-146 659.05,-145.97 659.16,-145.9"/>
<polygon fill="black" stroke="black" points="661.36,-148.64 667.82,-140.25 657.53,-142.78 661.36,-148.64"/>
<text text-anchor="middle" x="586.88" y="-185" font-family="Times New Roman,serif" font-size="14.00">inputImage</text>
<text text-anchor="middle" x="586.88" y="-168.2" font-family="Times New Roman,serif" font-size="14.00">[0..1]</text>
</g>
<!-- SepiaConverter507044939 -->
<g id="node13" class="node">
<title>SepiaConverter507044939</title>
<polygon fill="#ffffff" stroke="transparent" points="1156,-110 852,-110 852,-60 1156,-60 1156,-110"/>
<text text-anchor="start" x="857" y="-92.4" font-family="Times New Roman,serif" font-size="14.00">(C)SepiaConverter</text>
<text text-anchor="start" x="856.58" y="-68.4" font-family="Times New Roman,serif" font-size="14.00">+ convert(image: Photo, imageName: String): String</text>
<polygon fill="black" stroke="black" points="852,-85 852,-85 1156,-85 1156,-85 852,-85"/>
<polygon fill="none" stroke="black" points="852,-60 852,-110 1156,-110 1156,-60 852,-60"/>
</g>
<!-- ConcurrentConverter1577323120&#45;&gt;SepiaConverter507044939 -->
<g id="edge4" class="edge">
<title>ConcurrentConverter1577323120&#45;&gt;SepiaConverter507044939</title>
<path fill="none" stroke="black" d="M264.23,-221.01C270.33,-217.63 274,-215.6 274,-215.6 274,-215.6 623,-197.6 623,-197.6 623,-197.6 843,-146 843,-146 843,-146 894.65,-126.75 939.44,-110.06"/>
</g>
<!-- ConvertPhotoActivity1526362 -->
<g id="node3" class="node">
<title>ConvertPhotoActivity1526362</title>
<polygon fill="#ffffff" stroke="transparent" points="771,-625.2 253,-625.2 253,-431.2 771,-431.2 771,-625.2"/>
<text text-anchor="start" x="258" y="-607.6" font-family="Times New Roman,serif" font-size="14.00">(C)ConvertPhotoActivity</text>
<text text-anchor="start" x="258" y="-583.6" font-family="Times New Roman,serif" font-size="14.00">&#45; &#160;&#160;conversionResults: Map&lt;ConcurrentConverter, Future&lt;Void&gt;&gt; [0..*]</text>
<text text-anchor="start" x="258" y="-559.6" font-family="Times New Roman,serif" font-size="14.00">&#45; &#160;&#160;converterMapper: ConverterStrategyMapper [0..1]</text>
<text text-anchor="start" x="258" y="-535.6" font-family="Times New Roman,serif" font-size="14.00">&#45; &#160;&#160;executorService: ExecutorService [0..1]</text>
<text text-anchor="start" x="258" y="-511.6" font-family="Times New Roman,serif" font-size="14.00">&#45; gatherResults(): List&lt;String&gt;</text>
<text text-anchor="start" x="257.81" y="-487.6" font-family="Times New Roman,serif" font-size="14.00">+ handleRequest(filePath: String, conversionTypes: List&lt;ConversionType&gt;): List&lt;String&gt;</text>
<text text-anchor="start" x="258" y="-463.6" font-family="Times New Roman,serif" font-size="14.00">&#45; shutDownExecutorService()</text>
<text text-anchor="start" x="258" y="-439.6" font-family="Times New Roman,serif" font-size="14.00">&#45; submitConcurrentConverter(concurrentConverter: ConcurrentConverter)</text>
<polygon fill="black" stroke="black" points="253,-600.2 253,-600.2 771,-600.2 771,-600.2 253,-600.2"/>
<polygon fill="black" stroke="black" points="253,-528.2 253,-528.2 771,-528.2 771,-528.2 253,-528.2"/>
<polygon fill="none" stroke="black" points="253,-431.2 253,-625.2 771,-625.2 771,-431.2 253,-431.2"/>
</g>
<!-- ConvertPhotoActivity1526362&#45;&gt;ConcurrentConverter1577323120 -->
<g id="edge5" class="edge">
<title>ConvertPhotoActivity1526362&#45;&gt;ConcurrentConverter1577323120</title>
<path fill="none" stroke="black" d="M363.12,-431.07C330.18,-409.8 295.67,-387.53 264.05,-367.11"/>
<polygon fill="black" stroke="black" points="265.95,-364.17 255.65,-361.69 262.15,-370.05 265.95,-364.17"/>
<text text-anchor="middle" x="379.32" y="-400.6" font-family="Times New Roman,serif" font-size="14.00">conversionResults</text>
<text text-anchor="middle" x="379.32" y="-383.8" font-family="Times New Roman,serif" font-size="14.00">[0..*]</text>
</g>
<!-- ConverterStrategyMapper507044939 -->
<g id="node4" class="node">
<title>ConverterStrategyMapper507044939</title>
<polygon fill="#ffffff" stroke="transparent" points="707.5,-325.6 282.5,-325.6 282.5,-251.6 707.5,-251.6 707.5,-325.6"/>
<text text-anchor="start" x="288" y="-308" font-family="Times New Roman,serif" font-size="14.00">(C)ConverterStrategyMapper</text>
<text text-anchor="start" x="288" y="-284" font-family="Times New Roman,serif" font-size="14.00">&#45; &#160;&#160;converterMap: Map&lt;ConversionType, PhotoConverter&gt; [0..*]</text>
<text text-anchor="start" x="287.64" y="-260" font-family="Times New Roman,serif" font-size="14.00">+ getImageConverter(conversionType: ConversionType): PhotoConverter</text>
<polygon fill="black" stroke="black" points="283,-300.6 283,-300.6 708,-300.6 708,-300.6 283,-300.6"/>
<polygon fill="black" stroke="black" points="283,-276.6 283,-276.6 708,-276.6 708,-276.6 283,-276.6"/>
<polygon fill="none" stroke="black" points="282.5,-251.6 282.5,-325.6 707.5,-325.6 707.5,-251.6 282.5,-251.6"/>
</g>
<!-- ConvertPhotoActivity1526362&#45;&gt;ConverterStrategyMapper507044939 -->
<g id="edge6" class="edge">
<title>ConvertPhotoActivity1526362&#45;&gt;ConverterStrategyMapper507044939</title>
<path fill="none" stroke="black" d="M505.11,-430.9C502.77,-398.2 500.26,-363.13 498.33,-336.11"/>
<polygon fill="black" stroke="black" points="501.79,-335.52 497.59,-325.8 494.81,-336.02 501.79,-335.52"/>
<text text-anchor="middle" x="551.19" y="-400.6" font-family="Times New Roman,serif" font-size="14.00">converterMapper</text>
<text text-anchor="middle" x="551.19" y="-383.8" font-family="Times New Roman,serif" font-size="14.00">[0..1]</text>
</g>
<!-- PhotoUtil1152408371 -->
<g id="node12" class="node">
<title>PhotoUtil1152408371</title>
<polygon fill="#ffffff" stroke="transparent" points="1244,-349.6 726,-349.6 726,-227.6 1244,-227.6 1244,-349.6"/>
<text text-anchor="start" x="731" y="-332" font-family="Times New Roman,serif" font-size="14.00">(C)PhotoUtil</text>
<text text-anchor="start" x="731" y="-308" font-family="Times New Roman,serif" font-size="14.00">&#45; createRGB(bufferedImageRGBValue: int): RGB</text>
<text text-anchor="start" x="731" y="-284" font-family="Times New Roman,serif" font-size="14.00">+ fromFile(filePath: String): Photo</text>
<text text-anchor="start" x="731" y="-260" font-family="Times New Roman,serif" font-size="14.00">&#45; getRGBIntValue(rgb: RGB): int</text>
<text text-anchor="start" x="730.85" y="-236" font-family="Times New Roman,serif" font-size="14.00">+ savePhoto(image: Photo, imageName: String, conversionType: ConversionType): String</text>
<polygon fill="black" stroke="black" points="726,-324.6 726,-324.6 1244,-324.6 1244,-324.6 726,-324.6"/>
<polygon fill="none" stroke="black" points="726,-227.6 726,-349.6 1244,-349.6 1244,-227.6 726,-227.6"/>
</g>
<!-- ConvertPhotoActivity1526362&#45;&gt;PhotoUtil1152408371 -->
<g id="edge7" class="edge">
<title>ConvertPhotoActivity1526362&#45;&gt;PhotoUtil1152408371</title>
<path fill="none" stroke="black" d="M703.36,-431.07C754.76,-405.26 809.11,-377.96 856.21,-354.3"/>
<polygon fill="black" stroke="black" points="857.86,-357.38 865.22,-349.77 854.72,-351.13 857.86,-357.38"/>
<text text-anchor="middle" x="888.8" y="-392.2" font-family="Times New Roman,serif" font-size="14.00">handleRequest() &#45;&gt; fromFile()</text>
</g>
<!-- DaggerServiceComponent608074794 -->
<g id="node5" class="node">
<title>DaggerServiceComponent608074794</title>
<polygon fill="#ffffff" stroke="transparent" points="1140,-589.2 812,-589.2 812,-467.2 1140,-467.2 1140,-589.2"/>
<text text-anchor="start" x="817" y="-571.6" font-family="Times New Roman,serif" font-size="14.00">(C)DaggerServiceComponent</text>
<text text-anchor="start" x="817" y="-547.6" font-family="Times New Roman,serif" font-size="14.00">&#45; &#160;&#160;serviceComponent: DaggerServiceComponent [0..1]</text>
<text text-anchor="start" x="817" y="-523.6" font-family="Times New Roman,serif" font-size="14.00">+ builder(): Builder</text>
<text text-anchor="start" x="817" y="-499.6" font-family="Times New Roman,serif" font-size="14.00">+ create(): ServiceComponent</text>
<text text-anchor="start" x="816.9" y="-475.6" font-family="Times New Roman,serif" font-size="14.00">+ provideConvertPhotoActivity(): ConvertPhotoActivity</text>
<polygon fill="black" stroke="black" points="812,-564.2 812,-564.2 1140,-564.2 1140,-564.2 812,-564.2"/>
<polygon fill="black" stroke="black" points="812,-540.2 812,-540.2 1140,-540.2 1140,-540.2 812,-540.2"/>
<polygon fill="none" stroke="black" points="812,-467.2 812,-589.2 1140,-589.2 1140,-467.2 812,-467.2"/>
</g>
<!-- DaggerServiceComponent608074794&#45;&gt;Builder1911043414 -->
<g id="edge8" class="edge">
<title>DaggerServiceComponent608074794&#45;&gt;Builder1911043414</title>
<path fill="none" stroke="black" d="M1076.4,-467.18C1155.67,-419.79 1253,-361.6 1253,-361.6 1253,-361.6 1282.47,-339.5 1308.75,-319.79"/>
<polygon fill="black" stroke="black" points="1310.87,-322.58 1316.77,-313.78 1306.67,-316.98 1310.87,-322.58"/>
<text text-anchor="middle" x="1268.19" y="-392.2" font-family="Times New Roman,serif" font-size="14.00">create() &#45;&gt; build()</text>
</g>
<!-- DraggableZoomablePanel408000173 -->
<g id="node6" class="node">
<title>DraggableZoomablePanel408000173</title>
<polygon fill="#ffffff" stroke="transparent" points="1346,-601.2 1158,-601.2 1158,-455.2 1346,-455.2 1346,-601.2"/>
<text text-anchor="start" x="1163" y="-583.6" font-family="Times New Roman,serif" font-size="14.00">(C)DraggableZoomablePanel</text>
<text text-anchor="start" x="1163" y="-559.6" font-family="Times New Roman,serif" font-size="14.00">&#45; &#160;&#160;image: BufferedImage [0..1]</text>
<text text-anchor="start" x="1163" y="-535.6" font-family="Times New Roman,serif" font-size="14.00">&#45; &#160;&#160;imageCorner: Point [0..1]</text>
<text text-anchor="start" x="1163" y="-511.6" font-family="Times New Roman,serif" font-size="14.00">&#45; &#160;&#160;prevPt: Point [0..1]</text>
<text text-anchor="start" x="1163" y="-487.6" font-family="Times New Roman,serif" font-size="14.00">&#45; &#160;&#160;zoomFactor: double [1]</text>
<text text-anchor="start" x="1162.96" y="-463.6" font-family="Times New Roman,serif" font-size="14.00"># paintComponent(g: Graphics)</text>
<polygon fill="black" stroke="black" points="1158,-576.2 1158,-576.2 1346,-576.2 1346,-576.2 1158,-576.2"/>
<polygon fill="black" stroke="black" points="1158,-480.2 1158,-480.2 1346,-480.2 1346,-480.2 1158,-480.2"/>
<polygon fill="none" stroke="black" points="1158,-455.2 1158,-601.2 1346,-601.2 1346,-455.2 1158,-455.2"/>
</g>
<!-- FileUtil1152408371 -->
<g id="node7" class="node">
<title>FileUtil1152408371</title>
<polygon fill="#ffffff" stroke="transparent" points="1433.5,-924.8 1204.5,-924.8 1204.5,-850.8 1433.5,-850.8 1433.5,-924.8"/>
<text text-anchor="start" x="1210" y="-907.2" font-family="Times New Roman,serif" font-size="14.00">(C)FileUtil</text>
<text text-anchor="start" x="1210" y="-883.2" font-family="Times New Roman,serif" font-size="14.00">+ copyFile(source: File, dest: File)</text>
<text text-anchor="start" x="1209.63" y="-859.2" font-family="Times New Roman,serif" font-size="14.00">+ loadImage(file: File): BufferedImage</text>
<polygon fill="black" stroke="black" points="1205,-899.8 1205,-899.8 1434,-899.8 1434,-899.8 1205,-899.8"/>
<polygon fill="none" stroke="black" points="1204.5,-850.8 1204.5,-924.8 1433.5,-924.8 1433.5,-850.8 1204.5,-850.8"/>
</g>
<!-- MainPanel1152389264 -->
<g id="node10" class="node">
<title>MainPanel1152389264</title>
<polygon fill="#ffffff" stroke="transparent" points="1141,-1080.8 819,-1080.8 819,-694.8 1141,-694.8 1141,-1080.8"/>
<text text-anchor="start" x="824" y="-1063.2" font-family="Times New Roman,serif" font-size="14.00">(C)MainPanel</text>
<text text-anchor="start" x="824" y="-1039.2" font-family="Times New Roman,serif" font-size="14.00">&#45; &#160;&#160;applyGreyscaleButton: JButton [0..1]</text>
<text text-anchor="start" x="824" y="-1015.2" font-family="Times New Roman,serif" font-size="14.00">&#45; &#160;&#160;applyInversionButton: JButton [0..1]</text>
<text text-anchor="start" x="824" y="-991.2" font-family="Times New Roman,serif" font-size="14.00">&#45; &#160;&#160;applySepiaButton: JButton [0..1]</text>
<text text-anchor="start" x="824" y="-967.2" font-family="Times New Roman,serif" font-size="14.00">&#45; &#160;&#160;filePathLabel: JLabel [0..1]</text>
<text text-anchor="start" x="824" y="-943.2" font-family="Times New Roman,serif" font-size="14.00">&#45; &#160;&#160;filteredImage: BufferedImage [0..1]</text>
<text text-anchor="start" x="824" y="-919.2" font-family="Times New Roman,serif" font-size="14.00">&#45; &#160;&#160;filteredImagePanel: DraggableZoomablePanel [0..1]</text>
<text text-anchor="start" x="824" y="-895.2" font-family="Times New Roman,serif" font-size="14.00">&#45; &#160;&#160;filteredImagePaths: List&lt;String&gt; [0..*]</text>
<text text-anchor="start" x="824" y="-871.2" font-family="Times New Roman,serif" font-size="14.00">&#45; &#160;&#160;openButton: JButton [0..1]</text>
<text text-anchor="start" x="824" y="-847.2" font-family="Times New Roman,serif" font-size="14.00">&#45; &#160;&#160;originalImage: BufferedImage [0..1]</text>
<text text-anchor="start" x="823.92" y="-823.2" font-family="Times New Roman,serif" font-size="14.00">&#45; &#160;&#160;originalImagePanel: DraggableZoomablePanel [0..1]</text>
<text text-anchor="start" x="824" y="-799.2" font-family="Times New Roman,serif" font-size="14.00">&#45; &#160;&#160;saveButton: JButton [0..1]</text>
<text text-anchor="start" x="824" y="-775.2" font-family="Times New Roman,serif" font-size="14.00">&#45; &#160;&#160;selectedFile: File [0..1]</text>
<text text-anchor="start" x="824" y="-751.2" font-family="Times New Roman,serif" font-size="14.00">&#45; applyFilter(conversionType: ConversionType)</text>
<text text-anchor="start" x="824" y="-727.2" font-family="Times New Roman,serif" font-size="14.00">&#45; chooseFile()</text>
<text text-anchor="start" x="824" y="-703.2" font-family="Times New Roman,serif" font-size="14.00">&#45; saveFilteredImages()</text>
<polygon fill="black" stroke="black" points="819,-1055.8 819,-1055.8 1141,-1055.8 1141,-1055.8 819,-1055.8"/>
<polygon fill="black" stroke="black" points="819,-767.8 819,-767.8 1141,-767.8 1141,-767.8 819,-767.8"/>
<polygon fill="none" stroke="black" points="819,-694.8 819,-1080.8 1141,-1080.8 1141,-694.8 819,-694.8"/>
</g>
<!-- MainPanel1152389264&#45;&gt;ConvertPhotoActivity1526362 -->
<g id="edge9" class="edge">
<title>MainPanel1152389264&#45;&gt;ConvertPhotoActivity1526362</title>
<path fill="none" stroke="black" d="M818.94,-763.73C762.61,-720.69 700,-672.85 646.11,-631.67"/>
<polygon fill="black" stroke="black" points="647.95,-628.67 637.88,-625.38 643.7,-634.24 647.95,-628.67"/>
<text text-anchor="middle" x="795.03" y="-655.8" font-family="Times New Roman,serif" font-size="14.00">applyFilter() &#45;&gt; handleRequest()</text>
</g>
<!-- MainPanel1152389264&#45;&gt;DaggerServiceComponent608074794 -->
<g id="edge10" class="edge">
<title>MainPanel1152389264&#45;&gt;DaggerServiceComponent608074794</title>
<path fill="none" stroke="black" d="M977.85,-694.65C977.42,-656.42 977,-619.01 976.67,-589.46"/>
</g>
<!-- MainPanel1152389264&#45;&gt;DraggableZoomablePanel408000173 -->
<g id="edge11" class="edge">
<title>MainPanel1152389264&#45;&gt;DraggableZoomablePanel408000173</title>
<path fill="none" stroke="black" d="M1071.14,-694.56C1085.38,-664.53 1095.49,-643.2 1095.49,-643.2 1095.49,-643.2 1149,-625.2 1149,-625.2 1149,-625.2 1156.37,-618.33 1167.18,-608.26"/>
<polygon fill="black" stroke="black" points="1169.8,-610.6 1174.73,-601.22 1165.02,-605.48 1169.8,-610.6"/>
<text text-anchor="middle" x="1148.25" y="-664.2" font-family="Times New Roman,serif" font-size="14.00">filteredImagePanel</text>
<text text-anchor="middle" x="1148.25" y="-647.4" font-family="Times New Roman,serif" font-size="14.00">[0..1]</text>
</g>
<!-- MainPanel1152389264&#45;&gt;DraggableZoomablePanel408000173 -->
<g id="edge12" class="edge">
<title>MainPanel1152389264&#45;&gt;DraggableZoomablePanel408000173</title>
<path fill="none" stroke="black" d="M1141.04,-734.46C1175.62,-701.76 1202,-676.8 1202,-676.8 1202,-676.8 1212.77,-645 1224.32,-610.92"/>
<polygon fill="black" stroke="black" points="1227.69,-611.86 1227.59,-601.27 1221.06,-609.62 1227.69,-611.86"/>
<text text-anchor="middle" x="1266.81" y="-664.2" font-family="Times New Roman,serif" font-size="14.00">originalImagePanel</text>
<text text-anchor="middle" x="1266.81" y="-647.4" font-family="Times New Roman,serif" font-size="14.00">[0..1]</text>
</g>
</g>
</svg>
